# xmcd
# Track frame offsets:
# 150
# 14016
# 31334
# 47293
# 64991
# 76170
# 97419
# 113126
# 125601
# 138578
# 149852
# 162013
#
# Disc length: 2420 seconds
# Revision: 0
# Processed by: cddbd v1.4PL0 Copyright (c) Steve Scherf et al.
# Submitted via: VisiTrax 2.9.2.167 - For more info visit www.synapsa.com
#
DISCID=ad09720c
DTITLE=Nalle - IT'S A WONDERFUL LIFE
DYEAR=1900
DGENRE=
TTITLE0=Was you blue
TTITLE1=I Got a thing
TTITLE2=My Nadine
TTITLE3=Long gone Dream
TTITLE4=I'M GOOD
TTITLE5=With These hand
TTITLE6=Rise above it
TTITLE7=Don't want to love you
TTITLE8=I wanna know
TTITLE9=Thunder and lightning
TTITLE10=Doctor doctor
TTITLE11=It's A wonderfull life
EXTD=Rene Dam>Trommer Knud Møller>Guitar, Harmonium, Banjo Søren Bøje> Guit
EXTD=ar på No.12 Jesper Haugaard>Bas H.C.Nielsen> Hammond, piano Martin Jøn
EXTD=sson>Hammond,piano på no. 1,2,6,7 &12 Ulrik Bust>Sax Rikke Mølgaard>Ko
EXTD=r og duet med Nalle på no.1 Knud Møller>producer og arrangør Morten Er
EXTD=iksen>Teknik Masteret af Tom Andersen Feedback.Indspillet i Lundgård S
EXTD=tudiet okt/dec 2002
EXTT0=
EXTT1=
EXTT2=
EXTT3=
EXTT4=
EXTT5=
EXTT6=
EXTT7=
EXTT8=
EXTT9=
EXTT10=
EXTT11=
PLAYORDER=
